<svg class="border shadow-md" viewBox="0 0 810.3822222222223 455.84" xmlns="http://www.w3.org/2000/svg" preserveAspectRatio="none" style="width:100vw ; height: 100vh;"><rect class="bg" id="bg" x="0" y="0" width="810.3822222222223" height="455.84" fill="#ebffd8"/><g transform="rotate(0 405.1911111111111 227.92)"><path d="M -336.79 -20.65 S -178.40 -48.65&#10;            0.00 -20.65 6.79 -53.65&#10;            336.79 -20.65 495.19 -45.97&#10;            673.59 -20.65 678.38 -50.65&#10;            1010.38 -20.65 1168.78 -68.65&#10;            1347.18 -20.65 h 110 V 655.8399999999999 H -336.79 Z" fill="#3DB05C" id="-1"/><path d="M -336.79 30.00 S -299.00 4.68&#10;            0.00 30.00 137.79 -12.00&#10;            336.79 30.00 458.59 4.68&#10;            673.59 30.00 831.99 -19.00&#10;            1010.38 30.00 1029.18 1.00&#10;            1347.18 30.00 h 110 V 655.8399999999999 H -336.79 Z" fill="#38a154" id="0"/><path d="M -336.79 80.65 S -178.40 36.65&#10;            0.00 80.65 158.40 30.65&#10;            336.79 80.65 495.19 44.65&#10;            673.59 80.65 831.99 55.32&#10;            1010.38 80.65 1168.78 55.32&#10;            1347.18 80.65 h 110 V 655.8399999999999 H -336.79 Z" fill="#33924c" id="1"/><path d="M -336.79 131.30 S -178.40 105.97&#10;            0.00 131.30 104.79 103.30&#10;            336.79 131.30 415.59 87.30&#10;            673.59 131.30 831.99 105.97&#10;            1010.38 131.30 1168.78 88.30&#10;            1347.18 131.30 h 110 V 655.8399999999999 H -336.79 Z" fill="#2e8344" id="2"/><path d="M -336.79 181.95 S -236.00 155.95&#10;            0.00 181.95 92.79 147.95&#10;            336.79 181.95 420.59 134.95&#10;            673.59 181.95 831.99 135.95&#10;            1010.38 181.95 1007.18 142.95&#10;            1347.18 181.95 h 110 V 655.8399999999999 H -336.79 Z" fill="#29743c" id="3"/><path d="M -336.79 232.60 S -290.00 207.27&#10;            0.00 232.60 133.79 206.60&#10;            336.79 232.60 495.19 185.60&#10;            673.59 232.60 831.99 207.27&#10;            1010.38 232.60 1113.18 185.60&#10;            1347.18 232.60 h 110 V 655.8399999999999 H -336.79 Z" fill="#246534" id="4"/><path d="M -336.79 283.24 S -264.00 245.24&#10;            0.00 283.24 158.40 257.92&#10;            336.79 283.24 495.19 257.92&#10;            673.59 283.24 831.99 257.92&#10;            1010.38 283.24 1168.78 246.24&#10;            1347.18 283.24 h 110 V 655.8399999999999 H -336.79 Z" fill="#1f562c" id="5"/><path id="6" d="M -336.79 333.89 S -342.00 308.57&#10;            0.00 333.89 69.79 294.89&#10;            336.79 333.89 409.59 305.89&#10;            673.59 333.89 759.38 308.57&#10;            1010.38 333.89 1168.78 302.89&#10;            1347.18 333.89 h 110 V 655.8399999999999 H -336.79 Z" fill="#1a4724"/><path id="7" d="M -336.79 384.54 S -245.00 336.54&#10;            0.00 384.54 144.79 359.22&#10;            336.79 384.54 403.59 336.54&#10;            673.59 384.54 721.38 336.54&#10;            1010.38 384.54 1168.78 359.22&#10;            1347.18 384.54 h 110 V 655.8399999999999 H -336.79 Z" fill="#15381c"/><path id="8" d="M -336.79 435.19 S -178.40 409.87&#10;            0.00 435.19 110.79 409.87&#10;            336.79 435.19 495.19 398.19&#10;            673.59 435.19 810.38 409.87&#10;            1010.38 435.19 1168.78 400.19&#10;            1347.18 435.19 h 110 V 655.8399999999999 H -336.79 Z" fill="#102914"/></g></svg>